<svg width="774" height="500" viewBox="0 0 774 500" fill="none" xmlns="http://www.w3.org/2000/svg">
<g clip-path="url(#clip0_199_33)">
<rect width="774" height="500" fill="#FFEBD3"/>
<path d="M72 70H707V426H72V70Z" fill="#89AF6C"/>
<path d="M293.113 461.89C287.793 467.438 278.982 467.621 273.436 462.298L177.775 370.493C172.231 365.174 172.049 356.368 177.367 350.822V350.822C182.687 345.275 191.498 345.092 197.044 350.414L292.705 442.219C298.249 447.539 298.431 456.345 293.113 461.89V461.89Z" fill="#694830"/>
<path d="M189.535 368.979C185.992 372.673 180.567 373.219 177.417 370.198L26.5803 224.692C23.8182 222.027 19.4267 219.827 17.8288 216.338C17.7597 216.187 17.7519 216.009 17.8228 215.796C18.0796 215.025 18.9349 214.654 19.7108 214.414V214.414C22.7979 213.456 28.423 211.315 31.6381 211.647C37.3923 212.24 46.0282 213.916 51.0776 214.937L91.3534 227.433C92.4559 227.775 93.5268 228.212 94.554 228.739L139.946 252.02L185.228 283.74L199.818 296.381C208.1 303.558 208.471 315.853 204.005 325.861C196.022 343.747 203.86 354.043 201.082 356.939L189.535 368.979Z" fill="url(#paint0_linear_199_33)"/>
<circle cx="174.341" cy="82.3411" r="60.0967" transform="rotate(33.6968 174.341 82.3411)" fill="url(#paint1_linear_199_33)"/>
<circle cx="273.794" cy="217.793" r="47.3532" transform="rotate(130.868 273.794 217.793)" fill="url(#paint2_linear_199_33)"/>
<path d="M487.712 273.892C485.807 278.642 482.984 282.971 479.406 286.631C475.828 290.292 471.564 293.211 466.857 295.223C462.151 297.235 457.094 298.301 451.976 298.359C446.858 298.417 441.778 297.466 437.027 295.561C432.276 293.655 427.947 290.833 424.287 287.255C420.627 283.677 417.708 279.413 415.696 274.706C413.683 270 412.618 264.943 412.56 259.825C412.502 254.706 413.453 249.627 415.358 244.876L451.535 259.384L487.712 273.892Z" fill="#B05757"/>
<path d="M632.764 150.513C636.382 154.134 639.251 158.432 641.208 163.162C643.164 167.892 644.17 172.961 644.168 178.079C644.166 183.198 643.155 188.266 641.194 192.994C639.234 197.722 636.361 202.018 632.74 205.635C629.119 209.253 624.821 212.122 620.091 214.079C615.361 216.036 610.292 217.042 605.173 217.039C600.055 217.037 594.987 216.027 590.259 214.066C585.531 212.105 581.235 209.232 577.617 205.611L605.191 178.062L632.764 150.513Z" fill="#B05757"/>
<path d="M520.949 218.987C516.241 220.996 511.184 222.058 506.066 222.112C500.947 222.167 495.868 221.213 491.119 219.304C486.369 217.396 482.042 214.571 478.384 210.99C474.727 207.41 471.81 203.144 469.801 198.436C467.792 193.728 466.73 188.67 466.675 183.552C466.621 178.434 467.575 173.355 469.483 168.605C471.392 163.856 474.217 159.529 477.797 155.871C481.378 152.213 485.644 149.296 490.352 147.287L505.65 183.137L520.949 218.987Z" fill="#536545"/>
<path d="M571.941 101.465C570.078 106.233 567.294 110.587 563.749 114.279C560.203 117.971 555.966 120.928 551.277 122.982C546.589 125.036 541.542 126.146 536.424 126.25C531.307 126.353 526.219 125.448 521.451 123.585C516.684 121.722 512.33 118.939 508.638 115.393C504.946 111.848 501.989 107.61 499.935 102.922C497.881 98.2332 496.77 93.1862 496.667 88.0686C496.563 82.9511 497.469 77.8632 499.331 73.0956L535.636 87.2805L571.941 101.465Z" fill="#DAC783"/>
<path d="M414.025 121.663C409.103 120.257 404.507 117.895 400.498 114.713C396.489 111.53 393.146 107.589 390.66 103.115C388.175 98.6404 386.594 93.7202 386.01 88.6351C385.426 83.5499 385.849 78.3995 387.255 73.4778C388.661 68.5562 391.023 63.9597 394.205 59.9508C397.388 55.9418 401.329 52.599 405.803 50.1132C410.278 47.6273 415.198 46.0471 420.283 45.4628C425.368 44.8785 430.519 45.3015 435.44 46.7076L424.733 84.1855L414.025 121.663Z" fill="#733737"/>
<rect x="372.88" y="293.88" width="319.155" height="199.023" rx="51" transform="rotate(-14.7529 372.88 293.88)" fill="url(#paint3_linear_199_33)"/>
<rect x="351.206" y="299.587" width="363.083" height="44.8251" rx="22.4125" transform="rotate(-14.7529 351.206 299.587)" fill="url(#paint4_linear_199_33)"/>
<rect x="361.791" y="378.381" width="81.5817" height="20.6195" rx="10.3098" transform="rotate(11.1205 361.791 378.381)" fill="url(#paint5_linear_199_33)"/>
<rect width="81.5817" height="20.6195" rx="10.3098" transform="matrix(-0.758973 0.651122 0.651122 0.758973 731.794 277.24)" fill="url(#paint6_linear_199_33)"/>
</g>
<defs>
<linearGradient id="paint0_linear_199_33" x1="150.239" y1="344.155" x2="198.549" y2="293.781" gradientUnits="userSpaceOnUse">
<stop stop-color="#8A8A8A"/>
<stop offset="1" stop-color="#D4D4D4"/>
</linearGradient>
<linearGradient id="paint1_linear_199_33" x1="174.341" y1="22.2444" x2="174.341" y2="142.438" gradientUnits="userSpaceOnUse">
<stop stop-color="#B05757"/>
<stop offset="1" stop-color="#536545"/>
</linearGradient>
<linearGradient id="paint2_linear_199_33" x1="273.794" y1="170.44" x2="273.794" y2="265.147" gradientUnits="userSpaceOnUse">
<stop stop-color="#DAC783"/>
<stop offset="1" stop-color="#B05757"/>
</linearGradient>
<linearGradient id="paint3_linear_199_33" x1="532.457" y1="293.88" x2="532.457" y2="492.903" gradientUnits="userSpaceOnUse">
<stop stop-color="#838282"/>
<stop offset="1" stop-color="#ABABAB"/>
</linearGradient>
<linearGradient id="paint4_linear_199_33" x1="532.747" y1="299.587" x2="532.747" y2="344.412" gradientUnits="userSpaceOnUse">
<stop stop-color="#838282"/>
<stop offset="1" stop-color="#ABABAB"/>
</linearGradient>
<linearGradient id="paint5_linear_199_33" x1="402.582" y1="378.381" x2="402.582" y2="399.001" gradientUnits="userSpaceOnUse">
<stop stop-color="#9B9B9B"/>
</linearGradient>
<linearGradient id="paint6_linear_199_33" x1="40.7908" y1="0" x2="40.7908" y2="20.6195" gradientUnits="userSpaceOnUse">
<stop stop-color="#9B9B9B"/>
</linearGradient>
<clipPath id="clip0_199_33">
<rect width="774" height="500" fill="white"/>
</clipPath>
</defs>
</svg>
