<svg width="774" height="500" viewBox="0 0 774 500" fill="none" xmlns="http://www.w3.org/2000/svg">
<g clip-path="url(#clip0_199_3)">
<rect width="774" height="500" fill="#FFEBD3"/>
<path d="M72 70H707V426H72V70Z" fill="#89AF6C"/>
<path d="M737.98 325C739.593 329.858 740.234 334.985 739.866 340.091C739.498 345.196 738.128 350.179 735.835 354.755C733.541 359.331 730.368 363.41 726.498 366.76C722.628 370.109 718.135 372.664 713.278 374.278C708.42 375.891 703.292 376.533 698.187 376.165C693.082 375.796 688.099 374.426 683.523 372.133C678.947 369.839 674.868 366.666 671.518 362.796C668.168 358.926 665.614 354.434 664 349.576L700.99 337.288L737.98 325Z" fill="url(#paint0_linear_199_3)"/>
<path d="M504.862 252.016C502.956 256.766 500.134 261.095 496.556 264.756C492.978 268.416 488.714 271.335 484.007 273.347C479.301 275.359 474.244 276.425 469.126 276.483C464.007 276.541 458.928 275.59 454.177 273.685C449.426 271.779 445.097 268.957 441.437 265.379C437.777 261.801 434.857 257.537 432.845 252.83C430.833 248.124 429.768 243.067 429.71 237.949C429.652 232.83 430.603 227.751 432.508 223L468.685 237.508L504.862 252.016Z" fill="url(#paint1_linear_199_3)"/>
<path d="M667 130.273C670.897 126.954 675.409 124.435 680.279 122.86C685.15 121.285 690.283 120.685 695.385 121.093C700.487 121.502 705.459 122.912 710.016 125.242C714.574 127.572 718.628 130.777 721.946 134.674C725.265 138.571 727.784 143.083 729.359 147.953C730.934 152.824 731.534 157.956 731.126 163.059C730.717 168.161 729.307 173.133 726.977 177.69C724.647 182.248 721.442 186.302 717.545 189.62L692.273 159.946L667 130.273Z" fill="url(#paint2_linear_199_3)"/>
<path d="M495 163.602C496.348 158.664 498.655 154.04 501.79 149.994C504.925 145.947 508.826 142.558 513.271 140.019C517.716 137.481 522.617 135.843 527.695 135.198C532.772 134.554 537.928 134.916 542.865 136.264C547.803 137.611 552.428 139.919 556.474 143.054C560.52 146.188 563.909 150.09 566.448 154.534C568.987 158.979 570.625 163.88 571.269 168.958C571.914 174.036 571.552 179.191 570.204 184.129L532.602 173.865L495 163.602Z" fill="url(#paint3_linear_199_3)"/>
<path d="M518.966 432.869C515.955 437.008 512.157 440.513 507.791 443.184C503.424 445.855 498.575 447.64 493.518 448.437C488.462 449.234 483.299 449.027 478.322 447.828C473.346 446.629 468.655 444.462 464.516 441.45C460.377 438.439 456.872 434.641 454.201 430.275C451.53 425.908 449.745 421.059 448.948 416.002C448.151 410.946 448.358 405.783 449.557 400.806C450.756 395.83 452.923 391.139 455.934 387L487.45 409.934L518.966 432.869Z" fill="url(#paint4_linear_199_3)"/>
<path d="M617.966 81.8688C614.954 86.0076 611.157 89.5126 606.791 92.1837C602.424 94.8548 597.575 96.6398 592.518 97.4366C587.462 98.2335 582.299 98.0267 577.322 96.828C572.346 95.6293 567.655 93.4622 563.516 90.4504C559.377 87.4386 555.872 83.6411 553.201 79.2747C550.53 74.9084 548.745 70.0587 547.948 65.0025C547.151 59.9463 547.358 54.7827 548.557 49.8064C549.755 44.8302 551.923 40.1387 554.934 36L586.45 58.9344L617.966 81.8688Z" fill="url(#paint5_linear_199_3)"/>
<path d="M595.539 356.586C592.414 360.64 588.522 364.039 584.084 366.589C579.645 369.139 574.748 370.79 569.672 371.448C564.596 372.105 559.44 371.756 554.499 370.421C549.557 369.086 544.927 366.79 540.873 363.666C536.819 360.541 533.419 356.649 530.869 352.211C528.319 347.772 526.669 342.875 526.011 337.799C525.354 332.723 525.703 327.567 527.038 322.626C528.373 317.684 530.668 313.054 533.793 309L564.666 332.793L595.539 356.586Z" fill="url(#paint6_linear_199_3)"/>
<path d="M411.478 179.663C406.556 178.257 401.96 175.895 397.951 172.713C393.942 169.53 390.599 165.589 388.113 161.115C385.627 156.64 384.047 151.72 383.463 146.635C382.879 141.55 383.302 136.4 384.708 131.478C386.114 126.556 388.476 121.96 391.658 117.951C394.841 113.942 398.782 110.599 403.256 108.113C407.731 105.627 412.651 104.047 417.736 103.463C422.821 102.878 427.972 103.301 432.893 104.708L422.186 142.185L411.478 179.663Z" fill="url(#paint7_linear_199_3)"/>
<path d="M575.249 263.804C572.59 259.43 570.819 254.575 570.035 249.517C569.252 244.459 569.473 239.296 570.686 234.323C571.898 229.35 574.078 224.664 577.101 220.534C580.124 216.403 583.931 212.909 588.305 210.249C592.678 207.59 597.533 205.818 602.591 205.035C607.65 204.252 612.813 204.473 617.786 205.686C622.759 206.898 627.444 209.078 631.575 212.101C635.705 215.124 639.2 218.931 641.859 223.305L608.554 243.554L575.249 263.804Z" fill="url(#paint8_linear_199_3)"/>
<path d="M341 304.565C345.693 302.521 350.742 301.421 355.86 301.329C360.978 301.236 366.064 302.152 370.827 304.025C375.591 305.898 379.939 308.691 383.623 312.244C387.307 315.798 390.256 320.042 392.3 324.735C394.344 329.427 395.444 334.477 395.536 339.595C395.629 344.712 394.713 349.798 392.84 354.562C390.967 359.326 388.174 363.674 384.621 367.358C381.067 371.042 376.823 373.991 372.13 376.035L356.565 340.3L341 304.565Z" fill="url(#paint9_linear_199_3)"/>
<path d="M293.113 461.89C287.793 467.438 278.982 467.621 273.436 462.298L177.775 370.493C172.231 365.174 172.049 356.368 177.367 350.822V350.822C182.687 345.275 191.498 345.092 197.044 350.414L292.705 442.219C298.249 447.539 298.431 456.345 293.113 461.89V461.89Z" fill="#694830"/>
<path d="M189.535 368.979C185.992 372.673 180.567 373.219 177.417 370.198L26.5803 224.692C23.8182 222.027 19.4267 219.827 17.8288 216.338C17.7597 216.187 17.7519 216.009 17.8228 215.796C18.0796 215.025 18.9349 214.654 19.7108 214.414V214.414C22.7979 213.456 28.423 211.315 31.6381 211.647C37.3923 212.24 46.0282 213.916 51.0776 214.937L91.3534 227.433C92.4559 227.775 93.5268 228.212 94.554 228.739L139.946 252.02L185.228 283.74L199.818 296.381C208.1 303.558 208.471 315.853 204.005 325.861C196.022 343.747 203.86 354.043 201.082 356.939L189.535 368.979Z" fill="url(#paint10_linear_199_3)"/>
<circle cx="174.341" cy="82.3411" r="60.0967" transform="rotate(33.6968 174.341 82.3411)" fill="url(#paint11_linear_199_3)"/>
<circle cx="273.793" cy="217.793" r="47.3532" transform="rotate(130.868 273.793 217.793)" fill="url(#paint12_linear_199_3)"/>
</g>
<defs>
<linearGradient id="paint0_linear_199_3" x1="700.99" y1="337.288" x2="713.278" y2="374.278" gradientUnits="userSpaceOnUse">
<stop stop-color="#B05757"/>
<stop offset="1" stop-color="#585F44"/>
</linearGradient>
<linearGradient id="paint1_linear_199_3" x1="468.685" y1="237.508" x2="454.177" y2="273.685" gradientUnits="userSpaceOnUse">
<stop stop-color="#DAC783"/>
<stop offset="1" stop-color="#B05757"/>
</linearGradient>
<linearGradient id="paint2_linear_199_3" x1="692.273" y1="159.946" x2="721.946" y2="134.674" gradientUnits="userSpaceOnUse">
<stop stop-color="#D3B47C"/>
<stop offset="1" stop-color="#B05757"/>
</linearGradient>
<linearGradient id="paint3_linear_199_3" x1="532.602" y1="173.865" x2="542.865" y2="136.264" gradientUnits="userSpaceOnUse">
<stop stop-color="#D3B47C"/>
<stop offset="1" stop-color="#B05757"/>
</linearGradient>
<linearGradient id="paint4_linear_199_3" x1="487.45" y1="409.934" x2="464.516" y2="441.45" gradientUnits="userSpaceOnUse">
<stop stop-color="#B05757"/>
<stop offset="1" stop-color="#536545"/>
</linearGradient>
<linearGradient id="paint5_linear_199_3" x1="586.45" y1="58.9344" x2="563.516" y2="90.4504" gradientUnits="userSpaceOnUse">
<stop stop-color="#B05757"/>
<stop offset="1" stop-color="#536545"/>
</linearGradient>
<linearGradient id="paint6_linear_199_3" x1="564.666" y1="332.793" x2="540.873" y2="363.666" gradientUnits="userSpaceOnUse">
<stop stop-color="#DAC783"/>
<stop offset="1" stop-color="#B05757"/>
</linearGradient>
<linearGradient id="paint7_linear_199_3" x1="422.186" y1="142.185" x2="384.708" y2="131.478" gradientUnits="userSpaceOnUse">
<stop stop-color="#733737"/>
<stop offset="1" stop-color="#626348"/>
</linearGradient>
<linearGradient id="paint8_linear_199_3" x1="608.554" y1="243.554" x2="588.305" y2="210.249" gradientUnits="userSpaceOnUse">
<stop stop-color="#733737"/>
<stop offset="1" stop-color="#536545"/>
</linearGradient>
<linearGradient id="paint9_linear_199_3" x1="356.565" y1="340.3" x2="392.3" y2="324.735" gradientUnits="userSpaceOnUse">
<stop stop-color="#733737"/>
<stop offset="1" stop-color="#536545"/>
</linearGradient>
<linearGradient id="paint10_linear_199_3" x1="150.239" y1="344.155" x2="198.549" y2="293.781" gradientUnits="userSpaceOnUse">
<stop stop-color="#8A8A8A"/>
<stop offset="1" stop-color="#D4D4D4"/>
</linearGradient>
<linearGradient id="paint11_linear_199_3" x1="174.341" y1="22.2444" x2="174.341" y2="142.438" gradientUnits="userSpaceOnUse">
<stop stop-color="#B05757"/>
<stop offset="1" stop-color="#536545"/>
</linearGradient>
<linearGradient id="paint12_linear_199_3" x1="273.793" y1="170.44" x2="273.793" y2="265.147" gradientUnits="userSpaceOnUse">
<stop stop-color="#DAC783"/>
<stop offset="1" stop-color="#B05757"/>
</linearGradient>
<clipPath id="clip0_199_3">
<rect width="774" height="500" fill="white"/>
</clipPath>
</defs>
</svg>
