<svg width="814" height="866" viewBox="0 0 814 866" fill="none" xmlns="http://www.w3.org/2000/svg">
<path d="M287.771 450.49C284.228 459.327 278.978 467.379 272.322 474.187C265.667 480.995 257.735 486.425 248.981 490.168C240.227 493.911 230.821 495.892 221.301 496C211.78 496.108 202.332 494.339 193.495 490.795C184.659 487.252 176.606 482.002 169.798 475.346C162.99 468.691 157.56 460.759 153.817 452.005C150.075 443.251 148.093 433.845 147.985 424.325C147.878 414.804 149.646 405.356 153.19 396.519L220.481 423.505L287.771 450.49Z" fill="#B05757"/>
<path d="M557.576 221C564.305 227.735 569.642 235.73 573.282 244.528C576.921 253.325 578.792 262.754 578.788 272.275C578.784 281.795 576.904 291.222 573.257 300.017C569.61 308.811 564.266 316.801 557.531 323.53C550.795 330.26 542.801 335.597 534.003 339.236C525.205 342.876 515.777 344.747 506.256 344.743C496.735 344.738 487.308 342.859 478.514 339.212C469.719 335.564 461.729 330.22 455 323.485L506.288 272.243L557.576 221Z" fill="#B05757"/>
<path d="M273.595 307.364C264.838 311.101 255.431 313.077 245.91 313.178C236.39 313.279 226.943 311.505 218.109 307.955C209.274 304.405 201.225 299.15 194.422 292.49C187.618 285.83 182.193 277.895 178.456 269.138C174.719 260.381 172.744 250.974 172.642 241.454C172.541 231.934 174.316 222.487 177.865 213.652C181.415 204.818 186.67 196.769 193.33 189.966C199.99 183.162 207.925 177.737 216.682 174L245.138 240.682L273.595 307.364Z" fill="#89AF6C"/>
<path d="M444.442 129.769C440.977 138.637 435.799 146.736 429.204 153.603C422.61 160.47 414.727 165.97 406.006 169.791C397.286 173.612 387.898 175.677 378.379 175.87C368.86 176.062 359.397 174.378 350.529 170.913C341.661 167.448 333.562 162.271 326.695 155.676C319.828 149.081 314.327 141.198 310.506 132.478C306.686 123.757 304.62 114.369 304.428 104.85C304.235 95.3316 305.92 85.868 309.384 77L376.913 103.384L444.442 129.769Z" fill="#DAC783"/>
<path d="M75.7106 159.338C66.5561 156.723 58.0064 152.329 50.5496 146.41C43.0928 140.49 36.875 133.16 32.2512 124.837C27.6274 116.514 24.6882 107.362 23.6013 97.9038C22.5145 88.4452 23.3012 78.8652 25.9167 69.7106C28.5322 60.5561 32.9253 52.0064 38.845 44.5496C44.7647 37.0928 52.0951 30.875 60.4178 26.2512C68.7404 21.6274 77.8923 18.6882 87.3509 17.6013C96.8095 16.5144 106.39 17.3012 115.544 19.9167L95.6274 89.6274L75.7106 159.338Z" fill="#733737"/>
<path d="M708.051 84.4592C703.556 92.8521 697.452 100.277 690.087 106.311C682.722 112.345 674.241 116.869 665.128 119.625C656.015 122.381 646.448 123.316 636.974 122.375C627.5 121.433 618.304 118.635 609.911 114.14C601.518 109.645 594.093 103.541 588.059 96.1763C582.025 88.8116 577.501 80.3305 574.745 71.2173C571.988 62.1042 571.054 52.5374 571.995 43.0632C572.937 33.589 575.735 24.3929 580.23 16L644.14 50.2296L708.051 84.4592Z" fill="#733737"/>
<rect x="74.178" y="487.669" width="593.643" height="370.193" rx="51" transform="rotate(-14.7529 74.178 487.669)" fill="#AEA8A8"/>
<rect x="33.8639" y="498.285" width="675.353" height="83.3769" rx="41.6884" transform="rotate(-14.7529 33.8639 498.285)" fill="#AEA8A8"/>
<rect x="53.5533" y="644.846" width="151.746" height="38.3534" rx="19.1767" transform="rotate(11.1205 53.5533 644.846)" fill="#AEA8A8"/>
<rect width="151.746" height="38.3534" rx="19.1767" transform="matrix(-0.758973 0.651122 0.651122 0.758973 741.776 456.717)" fill="#AEA8A8"/>
</svg>
