<svg width="511" height="553" viewBox="0 0 511 553" fill="none" xmlns="http://www.w3.org/2000/svg">
<path d="M464.788 313C470.851 320.34 475.41 328.803 478.203 337.905C480.997 347.006 481.97 356.569 481.067 366.047C480.165 375.525 477.404 384.733 472.944 393.144C468.483 401.555 462.409 409.005 455.069 415.069C447.729 421.133 439.266 425.691 430.164 428.485C421.062 431.278 411.5 432.251 402.022 431.349C392.544 430.446 383.336 427.686 374.925 423.225C366.514 418.764 359.064 412.69 353 405.35L408.894 359.175L464.788 313Z" fill="#DAC783"/>
<path d="M283 279.121C280.169 288.211 275.575 296.654 269.48 303.969C263.386 311.284 255.91 317.326 247.481 321.752C239.051 326.177 229.832 328.899 220.35 329.762C210.869 330.625 201.31 329.612 192.22 326.78C183.13 323.949 174.686 319.355 167.372 313.26C160.057 307.166 154.015 299.691 149.589 291.261C145.163 282.831 142.441 273.612 141.579 264.131C140.716 254.649 141.729 245.09 144.56 236L213.78 257.56L283 279.121Z" fill="#B05757"/>
<path d="M3.74294e-05 461.637C5.9437 454.199 13.2941 448.005 21.6316 443.408C29.9691 438.811 39.1304 435.901 48.5925 434.845C58.0545 433.789 67.632 434.606 76.7781 437.251C85.9241 439.896 94.4597 444.317 101.897 450.26C109.335 456.204 115.529 463.554 120.126 471.892C124.723 480.229 127.633 489.391 128.689 498.853C129.746 508.315 128.928 517.892 126.283 527.038C123.638 536.184 119.218 544.72 113.274 552.158L56.6371 506.897L3.74294e-05 461.637Z" fill="#733737"/>
<path d="M409.313 161.684C401.13 156.818 393.985 150.387 388.288 142.759C382.59 135.131 378.45 126.456 376.105 117.229C373.76 108.001 373.256 98.402 374.621 88.9795C375.985 79.557 379.193 70.4956 384.059 62.3126C388.926 54.1296 395.357 46.9852 402.985 41.2875C410.612 35.5898 419.288 31.4503 428.515 29.1053C437.743 26.7604 447.342 26.2558 456.764 27.6206C466.187 28.9853 475.248 32.1926 483.431 37.0593L446.372 99.3719L409.313 161.684Z" fill="#89AF6C"/>
</svg>
